<svg width="45" height="45" viewBox="0 0 45 45" fill="none" xmlns="http://www.w3.org/2000/svg">
<g filter="url(#filter0_dii_3460_13673)">
<path d="M2.49219 8.72321C2.49219 4.59371 5.8398 1.24609 9.9693 1.24609H34.893C39.0225 1.24609 42.3701 4.59371 42.3701 8.72321V33.6469C42.3701 37.7764 39.0225 41.124 34.893 41.124H9.9693C5.8398 41.124 2.49219 37.7764 2.49219 33.6469V8.72321Z" fill="#F9F9FB"/>
<path d="M9.96973 1.86914H34.8926C38.6779 1.86914 41.7471 4.93826 41.7471 8.72363V33.6465C41.7471 37.4319 38.6779 40.501 34.8926 40.501H9.96973C6.18436 40.501 3.11523 37.4319 3.11523 33.6465V8.72363C3.11523 4.93826 6.18436 1.86914 9.96973 1.86914Z" stroke="#5D6B98" stroke-width="1.24619"/>
<path d="M16.1999 21.185H28.6618M13.0845 14.9541H31.7773M19.3154 27.416H25.5463" stroke="#5D6B98" stroke-width="2.08113" stroke-linecap="round" stroke-linejoin="round"/>
</g>
<defs>
<filter id="filter0_dii_3460_13673" x="-0.000183105" y="-9.15527e-05" width="44.8627" height="44.8627" filterUnits="userSpaceOnUse" color-interpolation-filters="sRGB">
<feFlood flood-opacity="0" result="BackgroundImageFix"/>
<feColorMatrix in="SourceAlpha" type="matrix" values="0 0 0 0 0 0 0 0 0 0 0 0 0 0 0 0 0 0 127 0" result="hardAlpha"/>
<feOffset dy="1.24619"/>
<feGaussianBlur stdDeviation="1.24619"/>
<feColorMatrix type="matrix" values="0 0 0 0 0.0392157 0 0 0 0 0.0496732 0 0 0 0 0.0705882 0 0 0 0.05 0"/>
<feBlend mode="normal" in2="BackgroundImageFix" result="effect1_dropShadow_3460_13673"/>
<feBlend mode="normal" in="SourceGraphic" in2="effect1_dropShadow_3460_13673" result="shape"/>
<feColorMatrix in="SourceAlpha" type="matrix" values="0 0 0 0 0 0 0 0 0 0 0 0 0 0 0 0 0 0 127 0" result="hardAlpha"/>
<feOffset dy="-2.49237"/>
<feComposite in2="hardAlpha" operator="arithmetic" k2="-1" k3="1"/>
<feColorMatrix type="matrix" values="0 0 0 0 0.0392157 0 0 0 0 0.0496732 0 0 0 0 0.0705882 0 0 0 0.05 0"/>
<feBlend mode="normal" in2="shape" result="effect2_innerShadow_3460_13673"/>
<feColorMatrix in="SourceAlpha" type="matrix" values="0 0 0 0 0 0 0 0 0 0 0 0 0 0 0 0 0 0 127 0" result="hardAlpha"/>
<feMorphology radius="1.24619" operator="erode" in="SourceAlpha" result="effect3_innerShadow_3460_13673"/>
<feOffset/>
<feComposite in2="hardAlpha" operator="arithmetic" k2="-1" k3="1"/>
<feColorMatrix type="matrix" values="0 0 0 0 0.0392157 0 0 0 0 0.0496732 0 0 0 0 0.0705882 0 0 0 0.18 0"/>
<feBlend mode="normal" in2="effect2_innerShadow_3460_13673" result="effect3_innerShadow_3460_13673"/>
</filter>
</defs>
</svg>
