<svg width="81" height="33" viewBox="0 0 81 33" fill="none" xmlns="http://www.w3.org/2000/svg">
<path d="M1.08838 31.8393L9.28683 30.6911C9.38855 30.6769 9.48774 30.6483 9.58145 30.6062L17.5602 27.0258C17.7195 26.9543 17.8593 26.8456 17.9677 26.7087L25.9863 16.5882C26.1001 16.4445 26.2484 16.3319 26.4173 16.2609L34.1815 12.9944C34.3992 12.9028 34.6408 12.8845 34.8699 12.9424L42.403 14.8439C42.7028 14.9196 43.0206 14.8642 43.2771 14.6915L51.0738 9.44328C51.178 9.37318 51.2935 9.32162 51.4152 9.2909L59.374 7.28189C59.5155 7.24618 59.6483 7.18238 59.7647 7.09429L67.4042 1.30903C67.7355 1.05815 68.1807 1.01783 68.5517 1.20512L76.0713 5.00142C76.2234 5.07821 76.3914 5.11821 76.5618 5.11821H79.0884" stroke="#40637A" stroke-width="2.17663" stroke-linecap="round" stroke-linejoin="round"/>
</svg>
