<svg width="121" height="34" viewBox="0 0 121 34" fill="none" xmlns="http://www.w3.org/2000/svg">
<g clip-path="url(#clip0_4015_1457)">
<mask id="mask0_4015_1457" style="mask-type:luminance" maskUnits="userSpaceOnUse" x="0" y="0" width="121" height="34">
<path d="M120.419 0H0V33.112H120.419V0Z" fill="white"/>
</mask>
<g mask="url(#mask0_4015_1457)">
<path d="M45.867 24.1353C46.3841 24.1353 46.7371 23.8892 46.7371 23.4368C46.7371 22.9844 46.3841 22.7432 45.867 22.7432H45.1312V24.1353H45.867ZM44.3556 22.0348H45.8546C46.7744 22.0348 47.5176 22.4524 47.5176 23.4443C47.5176 24.3541 46.7495 24.8538 45.8546 24.8538H45.1287V26.6138H44.3556V22.0348Z" fill="url(#paint0_linear_4015_1457)"/>
<path d="M50.1675 24.1354C50.6846 24.1354 51.0376 23.8893 51.0376 23.4369C51.0376 22.9844 50.6846 22.7433 50.1675 22.7433H49.4317V24.1354H50.1675ZM48.6561 22.0348H50.1551C51.0749 22.0348 51.8182 22.4524 51.8182 23.4443C51.8182 24.1304 51.3807 24.5829 50.7766 24.7643L52.0071 26.6138H51.1246L49.9786 24.8538H49.4317V26.6138H48.6586V22.0348H48.6561Z" fill="url(#paint1_linear_4015_1457)"/>
</g>
<path d="M52.999 22.0348H55.6912V22.7507H53.7721V23.9414H55.4675V24.6599H53.7721V25.8978H55.6912V26.6138H52.999V22.0348Z" fill="url(#paint2_linear_4015_1457)"/>
<mask id="mask1_4015_1457" style="mask-type:luminance" maskUnits="userSpaceOnUse" x="0" y="0" width="121" height="34">
<path d="M120.419 0H0V33.112H120.419V0Z" fill="white"/>
</mask>
<g mask="url(#mask1_4015_1457)">
<path d="M58.3835 25.8978C59.4375 25.8978 60.1683 25.2515 60.1683 24.3243C60.1683 23.397 59.4375 22.7457 58.3835 22.7457H57.6949V25.8978H58.3835ZM56.9218 22.0348H58.2741C59.7954 22.0348 60.9464 22.8924 60.9464 24.3243C60.9464 25.7561 59.7706 26.6088 58.2741 26.6088H57.6949V26.6138H56.9218V22.0348Z" fill="url(#paint3_linear_4015_1457)"/>
</g>
<path d="M62.9277 22.0348H62.1545V26.6138H62.9277V22.0348Z" fill="url(#paint4_linear_4015_1457)"/>
<mask id="mask2_4015_1457" style="mask-type:luminance" maskUnits="userSpaceOnUse" x="0" y="0" width="121" height="34">
<path d="M120.419 0H0V33.112H120.419V0Z" fill="white"/>
</mask>
<g mask="url(#mask2_4015_1457)">
<path d="M64.1357 24.3243C64.1357 22.9794 65.2022 21.9751 66.5545 21.9751C67.6011 21.9751 68.486 22.5096 68.7968 23.3846L68.1256 23.6307C67.9068 23.0664 67.3152 22.6513 66.5918 22.6513C65.6546 22.6513 64.9163 23.3846 64.9163 24.3243C64.9163 25.2639 65.6521 25.9923 66.6515 25.9923C67.3574 25.9923 67.9292 25.6169 68.1504 25.0576L68.8316 25.2639C68.5084 26.134 67.6508 26.6734 66.6092 26.6734C65.1848 26.6734 64.1357 25.6641 64.1357 24.3243Z" fill="url(#paint5_linear_4015_1457)"/>
</g>
<path d="M70.6587 22.7507H69.5823V22.0348H72.4982V22.7507H71.4268V26.6138H70.6587V22.7507Z" fill="url(#paint6_linear_4015_1457)"/>
<path d="M74.4422 22.0348H73.6691V26.6138H74.4422V22.0348Z" fill="url(#paint7_linear_4015_1457)"/>
<mask id="mask3_4015_1457" style="mask-type:luminance" maskUnits="userSpaceOnUse" x="0" y="0" width="121" height="34">
<path d="M120.419 0H0V33.112H120.419V0Z" fill="white"/>
</mask>
<g mask="url(#mask3_4015_1457)">
<path d="M79.8143 24.3193C79.8143 23.3747 79.1008 22.6513 78.1264 22.6513C77.1519 22.6513 76.426 23.3747 76.426 24.3193C76.426 25.2639 77.1395 25.9923 78.1264 25.9923C79.1133 25.9923 79.8143 25.2714 79.8143 24.3193ZM75.6479 24.3193C75.6479 22.957 76.7268 21.9776 78.1214 21.9776C79.516 21.9776 80.5998 22.957 80.5998 24.3193C80.5998 25.6816 79.5036 26.6734 78.1214 26.6734C76.7393 26.6734 75.6479 25.7213 75.6479 24.3193Z" fill="url(#paint8_linear_4015_1457)"/>
</g>
<path d="M81.8079 22.0348H82.5437L84.8282 25.2391V22.0348H85.6013V26.6138H84.8705L82.581 23.4144V26.6138H81.8079V22.0348Z" fill="url(#paint9_linear_4015_1457)"/>
<path d="M89.9492 22.0348H90.8914L92.4152 25.3584L93.9142 22.0348H94.8638V26.6138H94.0907V23.3448L92.5793 26.6138H92.2213L90.7223 23.3846V26.6138H89.9492V22.0348Z" fill="url(#paint10_linear_4015_1457)"/>
<path d="M98.6473 25.07L97.9289 22.8576L97.2105 25.07H98.6473ZM98.8785 25.781H96.9793L96.7108 26.6138H95.9253L97.4467 22.0348H98.4161L99.945 26.6138H99.1545L98.881 25.781H98.8785Z" fill="url(#paint11_linear_4015_1457)"/>
<mask id="mask4_4015_1457" style="mask-type:luminance" maskUnits="userSpaceOnUse" x="0" y="0" width="121" height="34">
<path d="M120.419 0H0V33.112H120.419V0Z" fill="white"/>
</mask>
<g mask="url(#mask4_4015_1457)">
<path d="M102.51 24.1353C103.027 24.1353 103.38 23.8892 103.38 23.4368C103.38 22.9844 103.027 22.7432 102.51 22.7432H101.774V24.1353H102.51ZM100.999 22.0348H102.498C103.418 22.0348 104.161 22.4524 104.161 23.4443C104.161 24.1304 103.723 24.5828 103.119 24.7643L104.35 26.6138H103.467L102.321 24.8538H101.772V26.6138H100.999V22.0348Z" fill="url(#paint12_linear_4015_1457)"/>
</g>
<path d="M105.342 22.0348H106.115V23.9315H106.147L107.564 22.0348H108.424L106.761 24.282L108.559 26.6138H107.686L106.157 24.635H106.115V26.6138H105.342V22.0348Z" fill="url(#paint13_linear_4015_1457)"/>
<path d="M109.575 22.0348H112.267V22.7507H110.348V23.9414H112.041V24.6599H110.348V25.8978H112.267V26.6138H109.575V22.0348Z" fill="url(#paint14_linear_4015_1457)"/>
<path d="M114.375 22.7507H113.299V22.0348H116.215V22.7507H115.144V26.6138H114.375V22.7507Z" fill="url(#paint15_linear_4015_1457)"/>
<mask id="mask5_4015_1457" style="mask-type:luminance" maskUnits="userSpaceOnUse" x="0" y="0" width="121" height="34">
<path d="M120.419 0H0V33.112H120.419V0Z" fill="white"/>
</mask>
<g mask="url(#mask5_4015_1457)">
<path d="M117.13 25.4156L117.886 25.2639C117.97 25.7636 118.39 25.9973 118.81 25.9973C119.26 25.9973 119.633 25.7164 119.633 25.3161C119.633 24.9582 119.347 24.7817 118.932 24.6524L118.189 24.4237C117.562 24.2298 117.227 23.8321 117.227 23.2901C117.227 22.7159 117.684 21.9751 118.738 21.9751C119.7 21.9751 120.212 22.527 120.327 23.131L119.571 23.2827C119.516 22.865 119.193 22.6438 118.768 22.6438C118.311 22.6438 118 22.8899 118 23.2305C118 23.5014 118.171 23.6879 118.572 23.8122L119.248 24.0235C120.038 24.2696 120.416 24.6996 120.416 25.2962C120.416 25.9301 119.979 26.6709 118.79 26.6709C117.871 26.6709 117.269 26.1663 117.127 25.4156" fill="url(#paint16_linear_4015_1457)"/>
</g>
<path d="M45.2878 28.5329H44.5146V33.1119H45.2878V28.5329Z" fill="url(#paint17_linear_4015_1457)"/>
<path d="M49.6729 28.5329V31.7397L47.3884 28.5329H46.6526V33.1119H47.4257V29.9126L49.7152 33.1119H50.446V28.5329H49.6729Z" fill="url(#paint18_linear_4015_1457)"/>
<mask id="mask6_4015_1457" style="mask-type:luminance" maskUnits="userSpaceOnUse" x="0" y="0" width="121" height="34">
<path d="M120.419 0H0V33.112H120.419V0Z" fill="white"/>
</mask>
<g mask="url(#mask6_4015_1457)">
<path d="M53.2724 32.396C54.3265 32.396 55.0573 31.7496 55.0573 30.8224C55.0573 29.8952 54.3265 29.2439 53.2724 29.2439H52.5839V32.396H53.2724ZM51.8132 28.5329H53.1656C54.6869 28.5329 55.8404 29.3905 55.8404 30.8224C55.8404 32.2543 54.6645 33.1069 53.1656 33.1069H52.5863V33.1119H51.8132V28.5329Z" fill="url(#paint19_linear_4015_1457)"/>
</g>
<path d="M57.046 28.5329V33.1119H59.7357V32.396H57.8191V31.158H59.512V30.4421H57.8191V29.2488H59.7357V28.5329H57.046Z" fill="url(#paint20_linear_4015_1457)"/>
<path d="M63.2931 28.5329L62.4653 30.1711L61.5952 28.5329H60.7127L61.9607 30.7652L60.6257 33.1119H61.4983L62.3882 31.4389L63.2757 33.1119H64.1532L62.8978 30.8572L64.1781 28.5329H63.2931Z" fill="url(#paint21_linear_4015_1457)"/>
<path d="M66.5968 5.18546H68.8888V18.1394H66.5968V5.18546ZM66.5968 0.559235H68.9136V3.06998H66.5968V0.559235Z" fill="white"/>
<mask id="mask7_4015_1457" style="mask-type:luminance" maskUnits="userSpaceOnUse" x="0" y="0" width="121" height="34">
<path d="M120.419 0H0V33.112H120.419V0Z" fill="white"/>
</mask>
<g mask="url(#mask7_4015_1457)">
<path d="M73.3758 11.6959C73.3509 7.92981 76.3911 4.97409 80.2989 4.97409C83.4113 4.97409 85.8474 6.62472 86.6926 9.16032L84.6666 9.78925C84.1595 8.20823 82.5188 6.97523 80.4208 6.97523C77.8628 6.97523 75.6205 8.97388 75.6205 11.6735C75.6205 14.3732 77.8155 16.347 80.4456 16.347C82.6158 16.347 84.2341 15.2308 84.7884 13.5802L86.7896 14.2788C86.0413 16.4191 83.8712 18.3481 80.3735 18.3481C76.5627 18.3481 73.4006 15.5814 73.3782 11.6984" fill="white"/>
<path d="M102.18 11.6735C102.18 9.06833 100.154 6.97521 97.3297 6.97521C94.5058 6.97521 92.5295 9.0907 92.5295 11.6735C92.5295 14.2564 94.6524 16.347 97.3297 16.347C100.151 16.347 102.18 14.3011 102.18 11.6735ZM90.24 11.6735C90.24 7.86019 93.1336 4.97656 97.0439 4.97656C99.4576 4.97656 101.434 6.07035 102.351 7.72098H102.423L102.471 5.18538H104.497V18.1393H102.471L102.423 15.6037H102.351C101.434 17.2792 99.4576 18.3481 97.0439 18.3481C93.136 18.3481 90.24 15.4869 90.24 11.6735Z" fill="white"/>
<path d="M109.804 -0.000183105H112.121V7.0473L112.193 7.06967C112.772 5.93114 114.027 4.97656 115.909 4.97656C118.345 4.97656 120.421 6.57995 120.421 10.2317V18.1393H118.104V10.535C118.104 7.83781 116.849 7.00007 115.186 7.00007C113.279 7.00007 112.123 8.53386 112.123 10.6966V18.1393H109.806V-0.000183105H109.804Z" fill="white"/>
<path d="M57.0684 4.97656C55.1965 4.97656 53.5036 5.91623 52.9194 7.01747V7.01002C52.8971 7.05476 52.8772 7.09951 52.8548 7.14425C52.8523 7.14922 52.8473 7.15668 52.8448 7.16165C52.8424 7.15668 52.8399 7.14922 52.8349 7.14425C52.8125 7.09951 52.7926 7.05476 52.7703 7.01002V7.01747C52.1861 5.91623 50.4932 4.97656 48.6213 4.97656C46.3766 4.97656 44.3506 6.44075 44.3506 9.90607V18.1393H46.6426V10.1397C46.6426 7.92979 47.632 6.93047 49.0564 6.93047C50.963 6.93047 51.7585 8.51149 51.7585 10.279V18.1393H53.9287V10.279C53.9287 8.51149 54.7242 6.93047 56.6308 6.93047C58.0553 6.93047 59.0446 7.92979 59.0446 10.1397V18.1393H61.3366V9.90607C61.3366 6.44075 59.3106 4.97656 57.0659 4.97656" fill="white"/>
</g>
<path d="M20.9509 -9.15527e-05V2.16014H21.816H24.6276V-9.15527e-05H20.9509Z" fill="url(#paint22_linear_4015_1457)"/>
<path d="M26.1887 -9.15527e-05V2.16014H27.0538H28.6249L29.8653 -9.15527e-05H26.1887Z" fill="url(#paint23_linear_4015_1457)"/>
<path d="M5.23767 -9.15527e-05L6.41847 2.16014H8.91429V-9.15527e-05H5.23767Z" fill="url(#paint24_linear_4015_1457)"/>
<path d="M10.4755 -9.15527e-05V2.16014H11.3406H14.1521V-9.15527e-05H10.4755Z" fill="url(#paint25_linear_4015_1457)"/>
<path d="M15.7133 -9.15527e-05V2.16014H16.5783H19.3899V-9.15527e-05H15.7133Z" fill="url(#paint26_linear_4015_1457)"/>
<path d="M22.9744 30.9417H20.9509V33.1019H21.816H24.6276V30.9417H22.9744Z" fill="url(#paint27_linear_4015_1457)"/>
<path d="M28.2794 30.9417H26.2559V33.1019H27.1234H29.9325V30.9417H28.2794Z" fill="url(#paint28_linear_4015_1457)"/>
<path d="M3.67655 30.9417H2.16016V33.1019H3.67655V30.9417Z" fill="white"/>
<path d="M0 33.1019H0.867573H2.16023H0V30.9417V33.1019Z" fill="url(#paint29_linear_4015_1457)"/>
<path d="M7.26118 30.9417H5.23767V33.1019H6.10524H8.91429V30.9417H7.26118Z" fill="url(#paint30_linear_4015_1457)"/>
<path d="M12.499 30.9417H10.4755V33.1019H11.3406H14.1521V30.9417H12.499Z" fill="url(#paint31_linear_4015_1457)"/>
<path d="M0.867573 2.16013H0V7.8006V30.9417H2.02351H2.16023V18.2189V2.4286L2.113 2.33165L2.0782 2.16013H0.867573Z" fill="white"/>
<path d="M0 0V2.16023H0.867573H2.0782L1.70283 0.283391L1.9191 0H0Z" fill="white"/>
<path d="M2.02351 30.9417H0V33.1019H2.16023V30.9417H2.02351Z" fill="white"/>
<path d="M33.0747 7.8006V30.9516H33.5843H35.2349V18.2189V2.16013H33.0747V7.8006Z" fill="white"/>
<path d="M11.5792 21.0653L11.9869 21.8732L13.3119 24.4958L15.2409 23.5214L14.4604 21.9776L13.5083 20.0909L11.5792 21.0653Z" fill="white"/>
<path d="M2.16016 2.16017V2.42864L3.43541 4.95182L5.36446 3.97735L4.58638 2.4361L3.67655 0.636322V2.16017H2.16016Z" fill="white"/>
<path d="M2.16016 -9.15527e-05V2.16014H3.67655V0.636295L3.35587 -9.15527e-05H2.16016Z" fill="white"/>
<path d="M2.07812 2.16013L2.11293 2.33165L2.16016 2.4286V2.16013H2.07812Z" fill="white"/>
<path d="M1.91911 -9.15527e-05L1.70532 0.283299L2.0782 2.16014H2.16024V-9.15527e-05H1.91911Z" fill="white"/>
<path d="M7.83541 8.8646L7.05484 7.32087L6.10275 5.43408L4.17371 6.40855L4.58139 7.21646L5.90637 9.83907L7.83541 8.8646Z" fill="white"/>
<path d="M6.64221 11.2958L7.0499 12.1037L8.37487 14.7238L10.3039 13.7493L9.52335 12.2081L8.56877 10.3188L6.64221 11.2958Z" fill="white"/>
<path d="M12.7724 18.6341L11.9919 17.0928L11.0398 15.2061L9.11072 16.1805L9.5184 16.9884L10.8434 19.6086L12.7724 18.6341Z" fill="white"/>
<path d="M19.3501 30.9417L19.3178 31.0088L18.2737 31.0685L18.2986 31.1232L17.8188 31.0958L16.7399 31.158L16.7996 31.0362L15.7207 30.9765L15.7133 30.9566V33.1019H16.5783H19.3899V30.9417H19.3501Z" fill="url(#paint32_linear_4015_1457)"/>
<path d="M15.7133 30.9417V30.9566L15.7207 30.9765L16.7996 31.0362L16.8443 30.9417H15.7133Z" fill="url(#paint33_linear_4015_1457)"/>
<path d="M17.8187 31.0958L18.2985 31.1232L18.2736 31.0685L17.8187 31.0958Z" fill="url(#paint34_linear_4015_1457)"/>
<path d="M23.0515 21.908L23.4592 21.1001L21.5301 20.1256L20.5781 22.0124L19.7975 23.5561L21.7265 24.5306L23.0515 21.908Z" fill="white"/>
<path d="M19.0618 25.0104L18.1097 26.8996L17.528 28.078L16.9289 26.8648L15.9768 24.9781L14.0477 25.9525L14.4554 26.7604L15.7133 29.48V29.4651H16.8443H17.7368H18.2091H19.3501L20.5831 26.7928L20.9908 25.9848L19.0618 25.0104Z" fill="white"/>
<path d="M18.2091 30.9417L18.2737 31.0685L19.3178 31.0088L19.3501 30.9417H18.2091Z" fill="url(#paint35_linear_4015_1457)"/>
<path d="M16.7399 31.158L17.8187 31.0959L16.7995 31.0362L16.7399 31.158Z" fill="url(#paint36_linear_4015_1457)"/>
<path d="M17.7367 30.9417H16.8443L16.7996 31.0362L17.8188 31.0958L18.2737 31.0685L18.2091 30.9417H17.7367Z" fill="url(#paint37_linear_4015_1457)"/>
<path d="M31.3445 2.16016V0.70343L30.452 2.47089L29.674 4.01214L31.603 4.98661L32.9255 2.36649L32.9677 2.16016H32.2618H31.3445Z" fill="white"/>
<path d="M27.9835 7.35566L27.2054 8.89691L29.1345 9.87386L30.457 7.25125L30.8672 6.44334L28.9381 5.46887L27.9835 7.35566Z" fill="white"/>
<path d="M27.9885 12.136L28.3962 11.3281L26.4696 10.3536L25.515 12.2404L24.7369 13.7841L26.6635 14.7586L27.9885 12.136Z" fill="white"/>
<path d="M23.0466 17.1277L22.266 18.6689L24.195 19.6434L25.52 17.0233L25.9277 16.2153L23.9987 15.2409L23.0466 17.1277Z" fill="white"/>
<path d="M35.2349 30.9517V33.1019H33.0746V30.9517H31.5632V33.1119H32.4283H35.2374V30.9517H35.2349Z" fill="white"/>
<path d="M33.5843 30.9517H33.0747V33.1019H35.2349V30.9517H33.5843Z" fill="white"/>
<path d="M32.9678 2.16017H33.0747V1.6257L32.9678 2.16017Z" fill="white"/>
<path d="M35.2373 -9.15527e-05H35.2349V2.16014H35.2373V-9.15527e-05Z" fill="white"/>
<path d="M33.1045 -9.15527e-05L33.3357 0.318102L33.0747 1.62568V2.16014H35.2349V-9.15527e-05H33.1045Z" fill="white"/>
<path d="M31.7 -9.15527e-05L31.3445 0.703414V2.16014H32.2618H32.9678L33.0747 1.62568V-9.15527e-05H31.7Z" fill="white"/>
<path d="M33.0747 -9.15527e-05V1.62568L33.3357 0.318102L33.1045 -9.15527e-05H33.0747Z" fill="white"/>
<path d="M5.36577 3.9786L3.43774 4.95294L14.0489 25.9504L15.977 24.9761L5.36577 3.9786Z" fill="white"/>
<path d="M29.6704 4.01043L19.0629 25.0098L20.9911 25.9838L31.5986 4.98443L29.6704 4.01043Z" fill="white"/>
</g>
<defs>
<linearGradient id="paint0_linear_4015_1457" x1="44.3556" y1="24.3243" x2="47.5176" y2="24.3243" gradientUnits="userSpaceOnUse">
<stop stop-color="white"/>
<stop offset="1" stop-color="white"/>
</linearGradient>
<linearGradient id="paint1_linear_4015_1457" x1="48.6561" y1="24.3243" x2="52.0071" y2="24.3243" gradientUnits="userSpaceOnUse">
<stop stop-color="white"/>
<stop offset="1" stop-color="white"/>
</linearGradient>
<linearGradient id="paint2_linear_4015_1457" x1="52.999" y1="24.3243" x2="55.6912" y2="24.3243" gradientUnits="userSpaceOnUse">
<stop stop-color="white"/>
<stop offset="1" stop-color="white"/>
</linearGradient>
<linearGradient id="paint3_linear_4015_1457" x1="56.9218" y1="24.3243" x2="60.9464" y2="24.3243" gradientUnits="userSpaceOnUse">
<stop stop-color="white"/>
<stop offset="1" stop-color="white"/>
</linearGradient>
<linearGradient id="paint4_linear_4015_1457" x1="62.1545" y1="24.3243" x2="62.9277" y2="24.3243" gradientUnits="userSpaceOnUse">
<stop stop-color="white"/>
<stop offset="1" stop-color="white"/>
</linearGradient>
<linearGradient id="paint5_linear_4015_1457" x1="64.1357" y1="24.3243" x2="68.8316" y2="24.3243" gradientUnits="userSpaceOnUse">
<stop stop-color="white"/>
<stop offset="1" stop-color="white"/>
</linearGradient>
<linearGradient id="paint6_linear_4015_1457" x1="69.5823" y1="24.3243" x2="72.4982" y2="24.3243" gradientUnits="userSpaceOnUse">
<stop stop-color="white"/>
<stop offset="1" stop-color="white"/>
</linearGradient>
<linearGradient id="paint7_linear_4015_1457" x1="73.6691" y1="24.3243" x2="74.4422" y2="24.3243" gradientUnits="userSpaceOnUse">
<stop stop-color="white"/>
<stop offset="1" stop-color="white"/>
</linearGradient>
<linearGradient id="paint8_linear_4015_1457" x1="75.6479" y1="24.3255" x2="80.5998" y2="24.3255" gradientUnits="userSpaceOnUse">
<stop stop-color="white"/>
<stop offset="1" stop-color="white"/>
</linearGradient>
<linearGradient id="paint9_linear_4015_1457" x1="81.8079" y1="24.3243" x2="85.6013" y2="24.3243" gradientUnits="userSpaceOnUse">
<stop stop-color="white"/>
<stop offset="1" stop-color="white"/>
</linearGradient>
<linearGradient id="paint10_linear_4015_1457" x1="89.9492" y1="24.3243" x2="94.8638" y2="24.3243" gradientUnits="userSpaceOnUse">
<stop stop-color="white"/>
<stop offset="1" stop-color="white"/>
</linearGradient>
<linearGradient id="paint11_linear_4015_1457" x1="95.9253" y1="24.3243" x2="99.945" y2="24.3243" gradientUnits="userSpaceOnUse">
<stop stop-color="white"/>
<stop offset="1" stop-color="white"/>
</linearGradient>
<linearGradient id="paint12_linear_4015_1457" x1="100.999" y1="24.3243" x2="104.35" y2="24.3243" gradientUnits="userSpaceOnUse">
<stop stop-color="white"/>
<stop offset="1" stop-color="white"/>
</linearGradient>
<linearGradient id="paint13_linear_4015_1457" x1="105.342" y1="24.3243" x2="108.559" y2="24.3243" gradientUnits="userSpaceOnUse">
<stop stop-color="white"/>
<stop offset="1" stop-color="white"/>
</linearGradient>
<linearGradient id="paint14_linear_4015_1457" x1="109.575" y1="24.3243" x2="112.267" y2="24.3243" gradientUnits="userSpaceOnUse">
<stop stop-color="white"/>
<stop offset="1" stop-color="white"/>
</linearGradient>
<linearGradient id="paint15_linear_4015_1457" x1="113.299" y1="24.3243" x2="116.215" y2="24.3243" gradientUnits="userSpaceOnUse">
<stop stop-color="white"/>
<stop offset="1" stop-color="white"/>
</linearGradient>
<linearGradient id="paint16_linear_4015_1457" x1="117.127" y1="24.323" x2="120.416" y2="24.323" gradientUnits="userSpaceOnUse">
<stop stop-color="white"/>
<stop offset="1" stop-color="white"/>
</linearGradient>
<linearGradient id="paint17_linear_4015_1457" x1="44.5146" y1="30.8224" x2="45.2878" y2="30.8224" gradientUnits="userSpaceOnUse">
<stop stop-color="white"/>
<stop offset="1" stop-color="white"/>
</linearGradient>
<linearGradient id="paint18_linear_4015_1457" x1="46.6526" y1="30.8224" x2="50.446" y2="30.8224" gradientUnits="userSpaceOnUse">
<stop stop-color="white"/>
<stop offset="1" stop-color="white"/>
</linearGradient>
<linearGradient id="paint19_linear_4015_1457" x1="51.8132" y1="30.8224" x2="55.8404" y2="30.8224" gradientUnits="userSpaceOnUse">
<stop stop-color="white"/>
<stop offset="1" stop-color="white"/>
</linearGradient>
<linearGradient id="paint20_linear_4015_1457" x1="57.046" y1="30.8224" x2="59.7357" y2="30.8224" gradientUnits="userSpaceOnUse">
<stop stop-color="white"/>
<stop offset="1" stop-color="white"/>
</linearGradient>
<linearGradient id="paint21_linear_4015_1457" x1="60.6257" y1="30.8224" x2="64.1781" y2="30.8224" gradientUnits="userSpaceOnUse">
<stop stop-color="white"/>
<stop offset="1" stop-color="white"/>
</linearGradient>
<linearGradient id="paint22_linear_4015_1457" x1="20.9509" y1="1.08002" x2="24.6276" y2="1.08002" gradientUnits="userSpaceOnUse">
<stop stop-color="white"/>
<stop offset="1" stop-color="white"/>
</linearGradient>
<linearGradient id="paint23_linear_4015_1457" x1="26.1887" y1="1.08002" x2="29.8653" y2="1.08002" gradientUnits="userSpaceOnUse">
<stop stop-color="white"/>
<stop offset="1" stop-color="white"/>
</linearGradient>
<linearGradient id="paint24_linear_4015_1457" x1="5.23767" y1="1.08002" x2="8.91429" y2="1.08002" gradientUnits="userSpaceOnUse">
<stop stop-color="white"/>
<stop offset="1" stop-color="white"/>
</linearGradient>
<linearGradient id="paint25_linear_4015_1457" x1="10.4755" y1="1.08002" x2="14.1521" y2="1.08002" gradientUnits="userSpaceOnUse">
<stop stop-color="white"/>
<stop offset="1" stop-color="white"/>
</linearGradient>
<linearGradient id="paint26_linear_4015_1457" x1="15.7133" y1="1.08002" x2="19.3899" y2="1.08002" gradientUnits="userSpaceOnUse">
<stop stop-color="white"/>
<stop offset="1" stop-color="white"/>
</linearGradient>
<linearGradient id="paint27_linear_4015_1457" x1="20.9509" y1="32.0218" x2="24.6276" y2="32.0218" gradientUnits="userSpaceOnUse">
<stop stop-color="white"/>
<stop offset="1" stop-color="white"/>
</linearGradient>
<linearGradient id="paint28_linear_4015_1457" x1="26.2559" y1="32.0218" x2="29.9325" y2="32.0218" gradientUnits="userSpaceOnUse">
<stop stop-color="white"/>
<stop offset="1" stop-color="white"/>
</linearGradient>
<linearGradient id="paint29_linear_4015_1457" x1="0" y1="32.0218" x2="2.16023" y2="32.0218" gradientUnits="userSpaceOnUse">
<stop stop-color="white"/>
<stop offset="1" stop-color="white"/>
</linearGradient>
<linearGradient id="paint30_linear_4015_1457" x1="5.23767" y1="32.0218" x2="8.91429" y2="32.0218" gradientUnits="userSpaceOnUse">
<stop stop-color="white"/>
<stop offset="1" stop-color="white"/>
</linearGradient>
<linearGradient id="paint31_linear_4015_1457" x1="10.4755" y1="32.0218" x2="14.1521" y2="32.0218" gradientUnits="userSpaceOnUse">
<stop stop-color="white"/>
<stop offset="1" stop-color="white"/>
</linearGradient>
<linearGradient id="paint32_linear_4015_1457" x1="15.7133" y1="32.0218" x2="19.3899" y2="32.0218" gradientUnits="userSpaceOnUse">
<stop stop-color="white"/>
<stop offset="1" stop-color="white"/>
</linearGradient>
<linearGradient id="paint33_linear_4015_1457" x1="15.7133" y1="30.9889" x2="16.8443" y2="30.9889" gradientUnits="userSpaceOnUse">
<stop stop-color="white"/>
<stop offset="1" stop-color="white"/>
</linearGradient>
<linearGradient id="paint34_linear_4015_1457" x1="17.8187" y1="31.0958" x2="18.2985" y2="31.0958" gradientUnits="userSpaceOnUse">
<stop stop-color="white"/>
<stop offset="1" stop-color="white"/>
</linearGradient>
<linearGradient id="paint35_linear_4015_1457" x1="18.2091" y1="31.0051" x2="19.3501" y2="31.0051" gradientUnits="userSpaceOnUse">
<stop stop-color="white"/>
<stop offset="1" stop-color="white"/>
</linearGradient>
<linearGradient id="paint36_linear_4015_1457" x1="16.7399" y1="31.0971" x2="17.8187" y2="31.0971" gradientUnits="userSpaceOnUse">
<stop stop-color="white"/>
<stop offset="1" stop-color="white"/>
</linearGradient>
<linearGradient id="paint37_linear_4015_1457" x1="16.7996" y1="31.0188" x2="18.2737" y2="31.0188" gradientUnits="userSpaceOnUse">
<stop stop-color="white"/>
<stop offset="1" stop-color="white"/>
</linearGradient>
<clipPath id="clip0_4015_1457">
<rect width="120.419" height="33.112" fill="white"/>
</clipPath>
</defs>
</svg>
