<svg width="121" height="34" viewBox="0 0 121 34" fill="none" xmlns="http://www.w3.org/2000/svg">
<g clip-path="url(#clip0_2552_15283)">
<mask id="mask0_2552_15283" style="mask-type:luminance" maskUnits="userSpaceOnUse" x="0" y="0" width="121" height="34">
<path d="M120.419 0H0V33.112H120.419V0Z" fill="white"/>
</mask>
<g mask="url(#mask0_2552_15283)">
<path d="M45.867 24.1354C46.3841 24.1354 46.7371 23.8893 46.7371 23.4368C46.7371 22.9844 46.3841 22.7433 45.867 22.7433H45.1312V24.1354H45.867ZM44.3556 22.0348H45.8546C46.7744 22.0348 47.5176 22.4524 47.5176 23.4443C47.5176 24.3541 46.7495 24.8538 45.8546 24.8538H45.1287V26.6138H44.3556V22.0348Z" fill="#8F9FA8"/>
<path d="M50.1675 24.1354C50.6846 24.1354 51.0376 23.8893 51.0376 23.4369C51.0376 22.9845 50.6846 22.7433 50.1675 22.7433H49.4317V24.1354H50.1675ZM48.6561 22.0349H50.1551C51.0749 22.0349 51.8182 22.4525 51.8182 23.4443C51.8182 24.1305 51.3807 24.5829 50.7766 24.7644L52.0071 26.6138H51.1246L49.9786 24.8538H49.4317V26.6138H48.6586V22.0349H48.6561Z" fill="#8F9FA8"/>
</g>
<path d="M52.999 22.0348H55.6912V22.7507H53.7721V23.9415H55.4675V24.6599H53.7721V25.8979H55.6912V26.6138H52.999V22.0348Z" fill="#8F9FA8"/>
<mask id="mask1_2552_15283" style="mask-type:luminance" maskUnits="userSpaceOnUse" x="0" y="0" width="121" height="34">
<path d="M120.419 0H0V33.112H120.419V0Z" fill="white"/>
</mask>
<g mask="url(#mask1_2552_15283)">
<path d="M58.3835 25.8979C59.4375 25.8979 60.1683 25.2515 60.1683 24.3243C60.1683 23.3971 59.4375 22.7458 58.3835 22.7458H57.6949V25.8979H58.3835ZM56.9218 22.0348H58.2741C59.7954 22.0348 60.9464 22.8924 60.9464 24.3243C60.9464 25.7562 59.7706 26.6088 58.2741 26.6088H57.6949V26.6138H56.9218V22.0348Z" fill="#8F9FA8"/>
</g>
<path d="M62.9277 22.0348H62.1545V26.6138H62.9277V22.0348Z" fill="#8F9FA8"/>
<mask id="mask2_2552_15283" style="mask-type:luminance" maskUnits="userSpaceOnUse" x="0" y="0" width="121" height="34">
<path d="M120.419 0H0V33.112H120.419V0Z" fill="white"/>
</mask>
<g mask="url(#mask2_2552_15283)">
<path d="M64.1357 24.3243C64.1357 22.9794 65.2022 21.9751 66.5545 21.9751C67.6011 21.9751 68.486 22.5096 68.7968 23.3846L68.1256 23.6307C67.9068 23.0664 67.3152 22.6513 66.5918 22.6513C65.6546 22.6513 64.9163 23.3846 64.9163 24.3243C64.9163 25.2639 65.6521 25.9923 66.6515 25.9923C67.3574 25.9923 67.9292 25.6169 68.1504 25.0576L68.8316 25.2639C68.5084 26.134 67.6508 26.6734 66.6092 26.6734C65.1848 26.6734 64.1357 25.6641 64.1357 24.3243Z" fill="#8F9FA8"/>
</g>
<path d="M70.6587 22.7507H69.5823V22.0348H72.4982V22.7507H71.4268V26.6138H70.6587V22.7507Z" fill="#8F9FA8"/>
<path d="M74.4422 22.0348H73.6691V26.6138H74.4422V22.0348Z" fill="#8F9FA8"/>
<mask id="mask3_2552_15283" style="mask-type:luminance" maskUnits="userSpaceOnUse" x="0" y="0" width="121" height="34">
<path d="M120.419 0H0V33.112H120.419V0Z" fill="white"/>
</mask>
<g mask="url(#mask3_2552_15283)">
<path d="M79.8143 24.3193C79.8143 23.3747 79.1008 22.6513 78.1264 22.6513C77.1519 22.6513 76.426 23.3747 76.426 24.3193C76.426 25.2639 77.1395 25.9923 78.1264 25.9923C79.1133 25.9923 79.8143 25.2714 79.8143 24.3193ZM75.6479 24.3193C75.6479 22.957 76.7268 21.9776 78.1214 21.9776C79.516 21.9776 80.5998 22.957 80.5998 24.3193C80.5998 25.6816 79.5036 26.6734 78.1214 26.6734C76.7393 26.6734 75.6479 25.7213 75.6479 24.3193Z" fill="#8F9FA8"/>
</g>
<path d="M81.8079 22.0348H82.5437L84.8282 25.2391V22.0348H85.6013V26.6138H84.8705L82.581 23.4145V26.6138H81.8079V22.0348Z" fill="#8F9FA8"/>
<path d="M89.9491 22.0348H90.8912L92.4151 25.3584L93.9141 22.0348H94.8637V26.6138H94.0906V23.3449L92.5792 26.6138H92.2212L90.7222 23.3846V26.6138H89.9491V22.0348Z" fill="#8F9FA8"/>
<path d="M98.6472 25.0701L97.9288 22.8576L97.2104 25.0701H98.6472ZM98.8784 25.781H96.9792L96.7107 26.6138H95.9252L97.4465 22.0348H98.416L99.9448 26.6138H99.1543L98.8809 25.781H98.8784Z" fill="#8F9FA8"/>
<mask id="mask4_2552_15283" style="mask-type:luminance" maskUnits="userSpaceOnUse" x="0" y="0" width="121" height="34">
<path d="M120.419 0H0V33.112H120.419V0Z" fill="white"/>
</mask>
<g mask="url(#mask4_2552_15283)">
<path d="M102.51 24.1354C103.027 24.1354 103.38 23.8893 103.38 23.4368C103.38 22.9844 103.027 22.7433 102.51 22.7433H101.774V24.1354H102.51ZM100.999 22.0348H102.498C103.418 22.0348 104.161 22.4524 104.161 23.4443C104.161 24.1304 103.723 24.5828 103.119 24.7643L104.35 26.6138H103.467L102.321 24.8538H101.772V26.6138H100.999V22.0348Z" fill="#8F9FA8"/>
</g>
<path d="M105.342 22.0348H106.115V23.9315H106.147L107.564 22.0348H108.424L106.761 24.282L108.559 26.6138H107.686L106.157 24.635H106.115V26.6138H105.342V22.0348Z" fill="#8F9FA8"/>
<path d="M109.575 22.0348H112.267V22.7507H110.348V23.9415H112.041V24.6599H110.348V25.8979H112.267V26.6138H109.575V22.0348Z" fill="#8F9FA8"/>
<path d="M114.375 22.7507H113.299V22.0348H116.215V22.7507H115.144V26.6138H114.375V22.7507Z" fill="#8F9FA8"/>
<mask id="mask5_2552_15283" style="mask-type:luminance" maskUnits="userSpaceOnUse" x="0" y="0" width="121" height="34">
<path d="M120.419 0H0V33.112H120.419V0Z" fill="white"/>
</mask>
<g mask="url(#mask5_2552_15283)">
<path d="M117.13 25.4156L117.886 25.2639C117.97 25.7636 118.39 25.9973 118.81 25.9973C119.26 25.9973 119.633 25.7164 119.633 25.3161C119.633 24.9582 119.347 24.7817 118.932 24.6524L118.189 24.4237C117.562 24.2298 117.227 23.8321 117.227 23.2901C117.227 22.7159 117.684 21.9751 118.738 21.9751C119.7 21.9751 120.212 22.527 120.327 23.131L119.571 23.2827C119.516 22.865 119.193 22.6438 118.768 22.6438C118.311 22.6438 118 22.8899 118 23.2305C118 23.5014 118.171 23.6879 118.572 23.8122L119.248 24.0235C120.038 24.2696 120.416 24.6996 120.416 25.2962C120.416 25.9301 119.979 26.6709 118.79 26.6709C117.871 26.6709 117.269 26.1663 117.127 25.4156" fill="#8F9FA8"/>
</g>
<path d="M45.2878 28.5329H44.5146V33.1119H45.2878V28.5329Z" fill="#8F9FA8"/>
<path d="M49.6729 28.5329V31.7397L47.3884 28.5329H46.6526V33.1119H47.4257V29.9126L49.7152 33.1119H50.446V28.5329H49.6729Z" fill="#8F9FA8"/>
<mask id="mask6_2552_15283" style="mask-type:luminance" maskUnits="userSpaceOnUse" x="0" y="0" width="121" height="34">
<path d="M120.419 0H0V33.112H120.419V0Z" fill="white"/>
</mask>
<g mask="url(#mask6_2552_15283)">
<path d="M53.2724 32.396C54.3265 32.396 55.0573 31.7496 55.0573 30.8224C55.0573 29.8952 54.3265 29.2439 53.2724 29.2439H52.5839V32.396H53.2724ZM51.8132 28.5329H53.1656C54.6869 28.5329 55.8404 29.3905 55.8404 30.8224C55.8404 32.2543 54.6645 33.1069 53.1656 33.1069H52.5863V33.1119H51.8132V28.5329Z" fill="#8F9FA8"/>
</g>
<path d="M57.046 28.5329V33.1119H59.7357V32.396H57.8191V31.158H59.512V30.4421H57.8191V29.2488H59.7357V28.5329H57.046Z" fill="#8F9FA8"/>
<path d="M63.2931 28.5329L62.4653 30.1711L61.5952 28.5329H60.7127L61.9607 30.7652L60.6257 33.1119H61.4983L62.3882 31.4389L63.2757 33.1119H64.1532L62.8978 30.8572L64.1781 28.5329H63.2931Z" fill="#8F9FA8"/>
<path d="M66.5968 5.18549H68.8888V18.1394H66.5968V5.18549ZM66.5968 0.559265H68.9136V3.07001H66.5968V0.559265Z" fill="#395366"/>
<mask id="mask7_2552_15283" style="mask-type:luminance" maskUnits="userSpaceOnUse" x="0" y="0" width="121" height="34">
<path d="M120.419 0H0V33.112H120.419V0Z" fill="white"/>
</mask>
<g mask="url(#mask7_2552_15283)">
<path d="M73.3758 11.6959C73.3509 7.92984 76.3911 4.97412 80.2989 4.97412C83.4113 4.97412 85.8474 6.62475 86.6926 9.16035L84.6666 9.78928C84.1595 8.20826 82.5188 6.97526 80.4208 6.97526C77.8628 6.97526 75.6205 8.97391 75.6205 11.6736C75.6205 14.3732 77.8155 16.347 80.4456 16.347C82.6158 16.347 84.2341 15.2309 84.7884 13.5803L86.7896 14.2788C86.0413 16.4191 83.8712 18.3482 80.3735 18.3482C76.5627 18.3482 73.4006 15.5814 73.3782 11.6984" fill="#395366"/>
<path d="M102.18 11.6736C102.18 9.06839 100.154 6.97527 97.3297 6.97527C94.5058 6.97527 92.5295 9.09076 92.5295 11.6736C92.5295 14.2564 94.6524 16.3471 97.3297 16.3471C100.151 16.3471 102.18 14.3012 102.18 11.6736ZM90.24 11.6736C90.24 7.86025 93.1336 4.97662 97.0439 4.97662C99.4576 4.97662 101.434 6.07041 102.351 7.72104H102.423L102.471 5.18544H104.497V18.1394H102.471L102.423 15.6038H102.351C101.434 17.2793 99.4576 18.3482 97.0439 18.3482C93.136 18.3482 90.24 15.4869 90.24 11.6736Z" fill="#395366"/>
<path d="M109.804 -0.00012207H112.121V7.04736L112.193 7.06973C112.772 5.9312 114.027 4.97662 115.909 4.97662C118.345 4.97662 120.421 6.58001 120.421 10.2318V18.1394H118.104V10.5351C118.104 7.83787 116.849 7.00013 115.186 7.00013C113.279 7.00013 112.123 8.53392 112.123 10.6966V18.1394H109.806V-0.00012207H109.804Z" fill="#395366"/>
<path d="M57.0684 4.97662C55.1965 4.97662 53.5036 5.91629 52.9194 7.01753V7.01008C52.8971 7.05482 52.8772 7.09957 52.8548 7.14431C52.8523 7.14929 52.8473 7.15674 52.8448 7.16172C52.8424 7.15674 52.8399 7.14929 52.8349 7.14431C52.8125 7.09957 52.7926 7.05482 52.7703 7.01008V7.01753C52.1861 5.91629 50.4932 4.97662 48.6213 4.97662C46.3766 4.97662 44.3506 6.44081 44.3506 9.90613V18.1394H46.6426V10.1398C46.6426 7.92985 47.632 6.93053 49.0564 6.93053C50.963 6.93053 51.7585 8.51155 51.7585 10.279V18.1394H53.9287V10.279C53.9287 8.51155 54.7242 6.93053 56.6308 6.93053C58.0553 6.93053 59.0446 7.92985 59.0446 10.1398V18.1394H61.3366V9.90613C61.3366 6.44081 59.3106 4.97662 57.0659 4.97662" fill="#395366"/>
</g>
<path d="M20.9509 -6.10352e-05V2.16017H21.816H24.6276V-6.10352e-05H20.9509Z" fill="#8F9FA8"/>
<path d="M26.1887 -6.10352e-05V2.16017H27.0538H28.6249L29.8653 -6.10352e-05H26.1887Z" fill="#8F9FA8"/>
<path d="M5.23767 -6.10352e-05L6.41847 2.16017H8.91429V-6.10352e-05H5.23767Z" fill="#8F9FA8"/>
<path d="M10.4755 -6.10352e-05V2.16017H11.3406H14.1521V-6.10352e-05H10.4755Z" fill="#8F9FA8"/>
<path d="M15.7133 -6.10352e-05V2.16017H16.5783H19.3899V-6.10352e-05H15.7133Z" fill="#8F9FA8"/>
<path d="M22.9744 30.9417H20.9509V33.1019H21.816H24.6276V30.9417H22.9744Z" fill="#8F9FA8"/>
<path d="M28.2794 30.9417H26.2559V33.1019H27.1234H29.9325V30.9417H28.2794Z" fill="#8F9FA8"/>
<path d="M3.67655 30.9417H2.16016V33.1019H3.67655V30.9417Z" fill="#395366"/>
<path d="M0 33.1019H0.867573H2.16023H0V30.9417V33.1019Z" fill="#8F9FA8"/>
<path d="M7.26118 30.9417H5.23767V33.1019H6.10524H8.91429V30.9417H7.26118Z" fill="#8F9FA8"/>
<path d="M12.499 30.9417H10.4755V33.1019H11.3406H14.1521V30.9417H12.499Z" fill="#8F9FA8"/>
<path d="M0.867573 2.16016H0V7.80063V30.9417H2.02351H2.16023V18.219V2.42863L2.113 2.33168L2.0782 2.16016H0.867573Z" fill="#395366"/>
<path d="M0 0V2.16023H0.867573H2.0782L1.70283 0.283391L1.9191 0H0Z" fill="#395366"/>
<path d="M2.02351 30.9417H0V33.1019H2.16023V30.9417H2.02351Z" fill="#395366"/>
<path d="M33.0746 7.80063V30.9517H33.5842H35.2348V18.219V2.16016H33.0746V7.80063Z" fill="#395366"/>
<path d="M11.5792 21.0653L11.9869 21.8732L13.3119 24.4958L15.2409 23.5213L14.4604 21.9776L13.5083 20.0908L11.5792 21.0653Z" fill="#395366"/>
<path d="M2.16016 2.16014V2.42861L3.43541 4.95179L5.36446 3.97732L4.58638 2.43607L3.67655 0.636292V2.16014H2.16016Z" fill="#395366"/>
<path d="M2.16016 -6.10352e-05V2.16017H3.67655V0.636325L3.35587 -6.10352e-05H2.16016Z" fill="#395366"/>
<path d="M2.07812 2.16016L2.11293 2.33168L2.16016 2.42863V2.16016H2.07812Z" fill="#395366"/>
<path d="M1.91911 -6.10352e-05L1.70532 0.28333L2.0782 2.16017H2.16024V-6.10352e-05H1.91911Z" fill="#395366"/>
<path d="M7.83541 8.8646L7.05484 7.32087L6.10275 5.43408L4.17371 6.40855L4.58139 7.21646L5.90637 9.83907L7.83541 8.8646Z" fill="#395366"/>
<path d="M6.64221 11.2958L7.0499 12.1037L8.37487 14.7238L10.3039 13.7494L9.52335 12.2081L8.56877 10.3188L6.64221 11.2958Z" fill="#395366"/>
<path d="M12.7724 18.6341L11.9919 17.0928L11.0398 15.2061L9.11072 16.1805L9.5184 16.9884L10.8434 19.6086L12.7724 18.6341Z" fill="#395366"/>
<path d="M19.3501 30.9417L19.3178 31.0088L18.2737 31.0685L18.2986 31.1232L17.8188 31.0958L16.7399 31.158L16.7996 31.0362L15.7207 30.9765L15.7133 30.9566V33.1019H16.5783H19.3899V30.9417H19.3501Z" fill="#8F9FA8"/>
<path d="M15.7133 30.9417V30.9566L15.7207 30.9765L16.7996 31.0362L16.8443 30.9417H15.7133Z" fill="#8F9FA8"/>
<path d="M17.8187 31.0958L18.2985 31.1232L18.2736 31.0685L17.8187 31.0958Z" fill="#8F9FA8"/>
<path d="M23.0515 21.908L23.4592 21.1001L21.5301 20.1256L20.5781 22.0124L19.7975 23.5561L21.7265 24.5306L23.0515 21.908Z" fill="#395366"/>
<path d="M19.0618 25.0104L18.1097 26.8997L17.528 28.078L16.9289 26.8649L15.9768 24.9781L14.0477 25.9526L14.4554 26.7605L15.7133 29.48V29.4651H16.8443H17.7368H18.2091H19.3501L20.5831 26.7928L20.9908 25.9849L19.0618 25.0104Z" fill="#395366"/>
<path d="M18.2091 30.9417L18.2737 31.0685L19.3178 31.0088L19.3501 30.9417H18.2091Z" fill="#8F9FA8"/>
<path d="M16.7399 31.158L17.8187 31.0959L16.7995 31.0362L16.7399 31.158Z" fill="#8F9FA8"/>
<path d="M17.7367 30.9417H16.8443L16.7996 31.0362L17.8188 31.0958L18.2737 31.0685L18.2091 30.9417H17.7367Z" fill="#8F9FA8"/>
<path d="M31.3445 2.16016V0.70343L30.452 2.47089L29.674 4.01214L31.603 4.98661L32.9255 2.36649L32.9677 2.16016H32.2618H31.3445Z" fill="#395366"/>
<path d="M27.9835 7.35566L27.2054 8.89691L29.1345 9.87386L30.457 7.25125L30.8672 6.44334L28.9381 5.46887L27.9835 7.35566Z" fill="#395366"/>
<path d="M27.9885 12.136L28.3962 11.328L26.4696 10.3536L25.515 12.2404L24.7369 13.7841L26.6635 14.7586L27.9885 12.136Z" fill="#395366"/>
<path d="M23.0466 17.1277L22.266 18.6689L24.195 19.6434L25.52 17.0233L25.9277 16.2154L23.9987 15.2409L23.0466 17.1277Z" fill="#395366"/>
<path d="M35.2349 30.9517V33.1019H33.0746V30.9517H31.5632V33.1119H32.4283H35.2374V30.9517H35.2349Z" fill="#395366"/>
<path d="M33.5842 30.9517H33.0746V33.1019H35.2348V30.9517H33.5842Z" fill="#395366"/>
<path d="M32.9678 2.16014H33.0747V1.62567L32.9678 2.16014Z" fill="#395366"/>
<path d="M35.2373 -6.10352e-05H35.2349V2.16017H35.2373V-6.10352e-05Z" fill="#395366"/>
<path d="M33.1044 -6.10352e-05L33.3356 0.318132L33.0746 1.62571V2.16017H35.2348V-6.10352e-05H33.1044Z" fill="#395366"/>
<path d="M31.7 -6.10352e-05L31.3445 0.703444V2.16017H32.2618H32.9678L33.0747 1.62571V-6.10352e-05H31.7Z" fill="#395366"/>
<path d="M33.0746 -6.10352e-05V1.62571L33.3356 0.318132L33.1044 -6.10352e-05H33.0746Z" fill="#395366"/>
<path d="M5.36577 3.97861L3.43774 4.95294L14.0489 25.9504L15.977 24.9761L5.36577 3.97861Z" fill="#395366"/>
<path d="M29.6704 4.01043L19.0629 25.0098L20.9911 25.9838L31.5986 4.98443L29.6704 4.01043Z" fill="#395366"/>
</g>
<defs>
<clipPath id="clip0_2552_15283">
<rect width="120.419" height="33.112" fill="white"/>
</clipPath>
</defs>
</svg>
