<svg width="20" height="20" viewBox="0 0 20 20" fill="none" xmlns="http://www.w3.org/2000/svg">
<path d="M7.5 12.5L17.5 2.5M17.5 2.5H11.6667M17.5 2.5V8.33333M8.33333 5H5.16667C4.23325 5 3.76654 5 3.41002 5.18166C3.09641 5.34145 2.84145 5.59641 2.68166 5.91002C2.5 6.26654 2.5 6.73325 2.5 7.66667V14.8333C2.5 15.7668 2.5 16.2335 2.68166 16.59C2.84145 16.9036 3.09641 17.1586 3.41002 17.3183C3.76654 17.5 4.23325 17.5 5.16667 17.5H12.3333C13.2668 17.5 13.7335 17.5 14.09 17.3183C14.4036 17.1586 14.6586 16.9036 14.8183 16.59C15 16.2335 15 15.7668 15 14.8333V11.6667" stroke="#5D6B98" stroke-width="1.66667" stroke-linecap="round" stroke-linejoin="round"/>
</svg>
